<?xml version="1.0" encoding="UTF-8"?><svg version="1.1" width="512px" height="512px" viewBox="0 0 512.0 512.0" xmlns="http://www.w3.org/2000/svg" xmlns:xlink="http://www.w3.org/1999/xlink"><defs><clipPath id="1021171114512151118104103115"><path d="M256,0 C397.384896,0 512,114.615104 512,256 C512,397.384896 397.384896,512 256,512 C114.615104,512 0,397.384896 0,256 C0,114.615104 114.615104,0 256,0 Z M312.825263,128 L284.294737,128 C249.498947,128 225.684211,149.76 225.684211,189.743158 L225.684211,224.303158 L197.827368,224.303158 C194.106713,224.303158 191.090526,227.319345 191.090526,231.04 L191.090526,266.677895 C191.090526,270.39855 194.106713,273.414737 197.827368,273.414737 L225.886316,273.414737 L225.684211,379.149474 C225.666217,380.418083 226.152978,381.641868 227.037387,382.551546 C227.921796,383.461224 229.131387,383.982258 230.4,384 L268.126316,384 C270.754807,383.963042 272.860877,381.811842 272.842105,379.183158 L272.842105,273.414737 L309.894737,273.414737 C313.344214,273.435663 316.252193,270.847562 316.631579,267.418947 L320.875789,231.747368 C321.104421,229.859998 320.524942,227.963888 319.280297,226.526773 C318.035653,225.089658 316.241729,224.245343 314.341053,224.202105 L272.842105,224.202105 L272.842105,194.391579 C272.842105,180.850526 276.412632,171.789474 295.343158,171.486316 L312.825263,171.486316 C316.545918,171.486316 319.562105,168.470129 319.562105,164.749474 L319.562105,134.736842 C319.562105,131.016187 316.545918,128 312.825263,128 Z"></path></clipPath></defs><g clip-path="url(#1021171114512151118104103115)"><polygon points="0,0 512,0 512,512 0,512 0,0" stroke="none" fill="#E26600"></polygon></g></svg>