<?xml version="1.0" encoding="UTF-8"?><svg version="1.1" width="512px" height="512px" viewBox="0 0 512.0 512.0" xmlns="http://www.w3.org/2000/svg" xmlns:xlink="http://www.w3.org/1999/xlink"><defs><clipPath id="11511850121106105111459853"><path d="M40.4547368,0 C62.7972711,0 80.9094737,18.1122026 80.9094737,40.4547368 C80.9094737,62.7972711 62.7972711,80.9094737 40.4547368,80.9094737 C18.1122026,80.9094737 0,62.7972711 0,40.4547368 C0,18.1122026 18.1122026,0 40.4547368,0 Z"></path></clipPath><clipPath id="116010312010611310954116118"><path d="M154.004211,0 C181.895975,0 204.511932,22.6008733 204.530526,50.4926316 L204.530526,153.970526 C204.530526,181.87544 181.909124,204.496842 154.004211,204.496842 L50.5263158,204.496842 C22.6214021,204.496842 0,181.87544 0,153.970526 L0,50.5263158 C0,22.6214021 22.6214021,0 50.5263158,0 Z M127.566298,41.0461428 C102.816264,30.798033 74.3298625,36.4699818 55.3928242,55.4166572 C36.455786,74.3633326 30.7983312,102.852617 41.0590319,127.597433 C51.3197326,152.34225 75.477435,168.468362 102.265263,168.454745 C138.810756,168.399046 168.41764,138.777095 168.454737,102.231579 C168.454737,75.4437473 152.316332,51.2942526 127.566298,41.0461428 Z M175.105568,20.890508 C168.985273,18.3480262 161.935856,19.7464768 157.249588,24.4327455 C152.563319,29.1190141 151.164868,36.1684304 153.70735,42.2887256 C156.249832,48.4090209 162.231577,52.39257 168.858947,52.3789822 C177.87385,52.3604172 185.177259,45.0570074 185.195824,36.0421053 C185.209412,29.4147346 181.225863,23.4329898 175.105568,20.890508 Z"></path></clipPath><clipPath id="122491031211051219711710497"><path d="M256,0 C397.384896,0 512,114.615104 512,256 C512,397.384896 397.384896,512 256,512 C114.615104,512 0,397.384896 0,256 C0,114.615104 114.615104,0 256,0 Z M307.738947,128 L204.261053,128 C162.166317,128.055669 128.055669,162.166317 128,204.261053 L128,307.738947 C128.055669,349.833683 162.166317,383.944331 204.261053,384 L307.738947,384 C349.841369,383.962856 383.962856,349.841369 384,307.738947 L384,204.261053 C383.944331,162.166317 349.833683,128.055669 307.738947,128 Z"></path></clipPath></defs><g transform="translate(215.54526315789474 215.54526315789474)"><g clip-path="url(#11511850121106105111459853)"><polygon points="0,0 80.9094737,0 80.9094737,80.9094737 0,80.9094737 0,0" stroke="none" fill="#E26600"></polygon></g></g><g transform="translate(153.73473684210524 153.76842105263154)"><g clip-path="url(#116010312010611310954116118)"><polygon points="0,0 204.530526,0 204.530526,204.496842 0,204.496842 0,0" stroke="none" fill="#E26600"></polygon></g></g><g clip-path="url(#122491031211051219711710497)"><polygon points="0,0 512,0 512,512 0,512 0,0" stroke="none" fill="#E26600"></polygon></g></svg>