<?xml version="1.0" encoding="UTF-8"?><svg version="1.1" width="586px" height="559px" viewBox="0 0 586.0 559.0" xmlns="http://www.w3.org/2000/svg" xmlns:xlink="http://www.w3.org/1999/xlink"><defs><clipPath id="55101985710295106505051"><path d="M88.1767248,0 C136.861534,0 176.35345,39.5012346 176.35345,88.1975309 L176.35345,382.298765 C176.35345,478.893827 98.0731551,557.192593 1.54778294,557.192593 L0,557.192593 L0,88.1975309 C0,39.9881975 38.706027,0.790944198 86.7189687,0.0118200642 L88.1767248,0 Z"></path></clipPath><clipPath id="10610712210154119101116049"><path d="M88.1767248,0 C136.861534,0 176.35345,39.5012346 176.35345,88.1975309 L176.35345,557.192593 L174.805667,557.192593 C78.233392,557.192593 0,478.893827 0,382.345679 L0,88.1975309 C0,39.9881975 38.706027,0.790944198 86.7189687,0.0118200642 L88.1767248,0 Z"></path></clipPath><clipPath id="109104521225111011749100100"><path d="M88.5988474,0 C137.424364,0 177.197695,39.7358025 177.197695,88.6197531 C177.197695,164.807407 90.0997279,204.871605 89.2554826,205.246914 L87.0510645,206.185185 L87.0510645,177.192593 C38.8821834,176.395062 0,136.940741 0,88.6197531 C0,39.782716 39.7264287,0 88.5988474,0 Z"></path></clipPath><clipPath id="118561171059756109121119111"><path d="M88.1767248,0 C136.861534,0 176.35345,39.5012346 176.35345,88.1975309 L176.35345,363.861728 L173.726909,361.281481 C148.305747,336.088889 120.351849,323.797531 88.1767248,323.797531 L87.097967,323.797531 C66.5077637,324.079012 46.1051705,315.259259 29.7830959,299.074074 C11.1158956,280.590123 0,254.506173 0,229.31358 L0,88.1975309 C0,39.9881975 38.706027,0.790944198 86.7189687,0.0118200642 L88.1767248,0 Z"></path></clipPath></defs><g transform=""><g clip-path="url(#55101985710295106505051)"><polygon points="0,0 176.35345,0 176.35345,557.192593 0,557.192593 0,0" stroke="none" fill="#202020"></polygon></g><g transform="translate(204.63566511925822 0.0)"><g clip-path="url(#10610712210154119101116049)"><polygon points="0,0 176.35345,0 176.35345,557.192593 0,557.192593 0,0" stroke="none" fill="#202020"></polygon></g></g><g transform="translate(408.80230510645197 351.85185185185037)"><g clip-path="url(#109104521225111011749100100)"><polygon points="0,0 177.197695,0 177.197695,206.185185 0,206.185185 0,0" stroke="none" fill="#E26600"></polygon></g></g><g transform="translate(409.2244277253085 0.0)"><g clip-path="url(#118561171059756109121119111)"><polygon points="0,0 176.35345,0 176.35345,363.861728 0,363.861728 0,0" stroke="none" fill="#202020"></polygon></g></g><g clip-path="url(#55101985710295106505051)"><polygon points="0,0 176.35345,0 176.35345,557.192593 0,557.192593 0,0" stroke="none" fill="#202020"></polygon></g><g transform="translate(204.63566511925822 0.0)"><g clip-path="url(#10610712210154119101116049)"><polygon points="0,0 176.35345,0 176.35345,557.192593 0,557.192593 0,0" stroke="none" fill="#202020"></polygon></g></g><g transform="translate(408.80230510645197 351.85185185185037)"><g clip-path="url(#109104521225111011749100100)"><polygon points="0,0 177.197695,0 177.197695,206.185185 0,206.185185 0,0" stroke="none" fill="#E26600"></polygon></g></g><g transform="translate(409.2244277253085 0.0)"><g clip-path="url(#118561171059756109121119111)"><polygon points="0,0 176.35345,0 176.35345,363.861728 0,363.861728 0,0" stroke="none" fill="#202020"></polygon></g></g></g></svg>