<?xml version="1.0" encoding="UTF-8"?><svg version="1.1" width="512px" height="512px" viewBox="0 0 512.0 512.0" xmlns="http://www.w3.org/2000/svg" xmlns:xlink="http://www.w3.org/1999/xlink"><defs><clipPath id="53569510611910210210197104"><path d="M0,0 L79.8652632,49.0442105 L0,98.1221053 L0,0 Z"></path></clipPath><clipPath id="99100108514911810910348118"><path d="M256,0 C397.384896,0 512,114.615104 512,256 C512,397.384896 397.384896,512 256,512 C114.615104,512 0,397.384896 0,256 C0,114.615104 114.615104,0 256,0 Z M340.48,166.938947 C284.407869,160.976778 227.861605,160.976778 171.789474,166.938947 C156.058947,169.128421 139.115789,178.526316 133.995789,194.425263 C126.012896,235.098317 126.012896,276.935367 133.995789,317.608421 C139.115789,333.338947 156.058947,342.905263 171.654737,345.094737 C227.726868,351.056907 284.273132,351.056907 340.345263,345.094737 C355.941053,342.905263 372.884211,333.338947 378.004211,317.608421 C386.031597,276.9441 386.077358,235.107048 378.138947,194.425263 C373.018947,178.661053 356.075789,169.128421 340.48,166.938947 Z"></path></clipPath></defs><g transform="translate(225.38105263157888 206.95578947368415)"><g clip-path="url(#53569510611910210210197104)"><polygon points="0,0 79.8652632,0 79.8652632,98.1221053 0,98.1221053 0,0" stroke="none" fill="#E26600"></polygon></g></g><g clip-path="url(#99100108514911810910348118)"><polygon points="0,0 512,0 512,512 0,512 0,0" stroke="none" fill="#E26600"></polygon></g></svg>